# xmcd CD database file
#
# Track frame offsets:
#	150
#	18852
#	34210
#	47779
#	64230
#	86922
#	98944
#	115801
#	127258
#	142526
#	156387
#	187313
#
# Disc length: 2680 seconds
#
# Revision: 4
# Processed by: cddbd v1.5.2PL0 Copyright (c) Steve Scherf et al.
# Submitted via: CDex 1.51
#
DISCID=ac0a760c
DTITLE=Green Day - Revolution Radio
DYEAR=2016
DGENRE=Punk Rock
TTITLE0=Somewhere Now
TTITLE1=Bang Bang
TTITLE2=Revolution Radio
TTITLE3=Say Goodbye
TTITLE4=Outlaws
TTITLE5=Bouncing Off The Wall
TTITLE6=Still Breathing
TTITLE7=Youngblood
TTITLE8=Too Dumb To Die
TTITLE9=Troubled Times
TTITLE10=Forever Now
TTITLE11=Ordinary World
EXTD=Location:  - UPC: 093624920069 - Catalogue number: 9362-49200-6 - Label: Reprise Records - ASIN: B01JZLQ094 - Release Date: 2016 10 07 - Discogs: a251593,r9165420 - MUSICBRAINZ_ALBUMID: 396b6058-95f5-48a3-9a25-73ca1be338a6 - AMG: mn0000154544,mw0002970503 - 
EXTD=YEAR: 2016
EXTT0=
EXTT1=
EXTT2=
EXTT3=
EXTT4=
EXTT5=
EXTT6=
EXTT7=
EXTT8=
EXTT9=
EXTT10=
EXTT11=
PLAYORDER=
